<svg height="512" viewBox="0 0 512 512" width="512" xmlns="http://www.w3.org/2000/svg"><g fill="none" fill-rule="evenodd"><path d="m0 0h512v512h-512z" fill="#000"/><g fill="#fff"><path d="m351.62646 506.497082h-191.62646z"/><path d="m303.719845 318c26.444452 0 47.906615 21.378491 47.906615 47.719845v146.142026h-191.62646v-146.142026c0-26.341354 21.462164-47.719845 47.906615-47.719845zm-115.719845 87v106.379375h9.980545v-106.379375zm125 0v106.379375h9.980545v-106.379375z"/><path d="m376.656134 149.37041c-21.835321-21.891888-50.075987-33.016882-78.69764-34.162804-8.191221-14.395647-23.478327-24.207606-41.194225-24.207606-17.692087 0-32.979193 9.811959-41.170414 24.183732-29.336004.668455-58.410079 11.793449-80.769257 34.210552-46.4327974 46.553088-46.4327974 122.279444 0 168.808659l17.748207-17.794186 15.921525-15.962771c-13.477418-13.512332-20.930477-31.51286-20.930477-50.635436 0-19.146449 7.453059-37.123103 20.930477-50.635436 12.810689-12.843877 30.169412-19.074829 47.718629-19.695537 8.334092 13.727193 23.311645 23.013937 40.55131 23.013937 17.477781 0 32.598205-9.525478 40.884673-23.610771 16.525314 1.169795 32.741076 7.591734 45.33746 20.268498 13.477418 13.536206 20.930477 31.51286 20.930477 50.659309 0 19.122576-7.453059 37.123104-20.930477 50.635436l33.669732 33.756957c46.432797-46.553088 46.432797-122.255571 0-168.832533z"/><path d="m279.908561 74.8731859v-74.8731859h-46.908561v75.5564214c7.763367-2.9449806 15.948911-4.8768879 24.462814-4.8768879 7.786821 0 15.268737 1.6963088 22.445747 4.1936524z"/><ellipse cx="255.906615" cy="255.719845" rx="47.906615" ry="47.719845"/></g></g></svg>