<?xml version="1.0" standalone="no"?>
<!DOCTYPE svg PUBLIC "-//W3C//DTD SVG 20010904//EN"
 "http://www.w3.org/TR/2001/REC-SVG-20010904/DTD/svg10.dtd">
<svg version="1.0" xmlns="http://www.w3.org/2000/svg"
 width="700.000000pt" height="700.000000pt" viewBox="0 0 700.000000 700.000000"
 preserveAspectRatio="xMidYMid meet">
<metadata>
Created by potrace 1.11, written by Peter Selinger 2001-2013
</metadata>
<g transform="translate(0.000000,700.000000) scale(0.100000,-0.100000)"
fill="#000000" stroke="none">
<path d="M0 3500 l0 -3500 1095 0 1094 0 3 1068 3 1067 23 65 c70 196 209 338
406 414 l81 31 760 3 c670 2 769 1 833 -13 223 -50 407 -221 484 -450 l23 -70
3 -1057 3 -1058 1094 0 1095 0 0 3500 0 3500 -1585 0 -1585 0 0 -510 c0 -280
-2 -510 -5 -510 -3 0 -40 10 -82 22 -65 19 -103 23 -223 23 -139 0 -213 -12
-312 -50 -17 -7 -18 22 -18 509 l0 516 -1595 0 -1595 0 0 -3500z m3665 2234
c137 -33 274 -125 364 -245 l50 -66 79 -6 c513 -40 992 -347 1251 -804 142
-250 212 -516 212 -808 0 -280 -56 -512 -184 -758 -63 -121 -183 -291 -255
-360 l-39 -38 -226 232 -226 233 45 49 c89 100 173 259 209 399 38 144 34 361
-10 511 -103 356 -384 614 -743 683 -107 20 -125 19 -144 -14 -55 -92 -177
-193 -293 -241 -268 -112 -590 -23 -762 212 l-37 50 -82 -7 c-210 -16 -420
-114 -572 -267 -120 -121 -195 -249 -248 -424 -25 -82 -28 -105 -28 -255 0
-142 3 -177 23 -250 39 -147 109 -280 209 -398 l45 -54 -230 -230 -230 -230
-73 83 c-261 302 -400 675 -400 1076 0 700 444 1318 1104 1535 131 43 314 78
407 78 l58 0 41 56 c167 224 422 321 685 258z m-20 -1596 c188 -40 353 -172
440 -353 49 -101 65 -172 65 -289 0 -177 -59 -316 -190 -447 -70 -70 -102 -94
-170 -127 -142 -68 -273 -86 -418 -56 -203 40 -372 172 -462 359 -46 96 -63
172 -63 285 1 175 61 317 188 446 168 170 376 232 610 182z"/>
<path d="M2570 735 l0 -725 70 0 70 0 0 725 0 725 -70 0 -70 0 0 -725z"/>
<path d="M4280 735 l0 -725 70 0 70 0 0 725 0 725 -70 0 -70 0 0 -725z"/>
</g>
</svg>
